<?xml version="1.0" standalone="no"?>
<!DOCTYPE svg PUBLIC "-//W3C//DTD SVG 20010904//EN"
 "http://www.w3.org/TR/2001/REC-SVG-20010904/DTD/svg10.dtd">
<svg version="1.0" xmlns="http://www.w3.org/2000/svg"
 width="897.000000pt" height="897.000000pt" viewBox="0 0 897.000000 897.000000"
 preserveAspectRatio="xMidYMid meet">
<metadata>
Created by potrace 1.11, written by Peter Selinger 2001-2013
</metadata>
<g transform="translate(0.000000,897.000000) scale(0.100000,-0.100000)"
fill="#000000" stroke="none">
<path d="M6185 8948 c-3 -13 -19 -95 -35 -183 -17 -88 -33 -168 -36 -177 -5
-16 4 -18 99 -18 l104 0 -266 -1330 -266 -1330 -102 0 c-98 0 -103 -1 -108
-22 -6 -27 -75 -370 -75 -375 0 -2 143 -3 319 -3 l319 0 23 120 c13 66 26 120
29 120 3 0 19 -30 35 -67 133 -308 511 -256 745 102 132 203 235 491 315 878
60 290 86 492 92 713 8 291 -15 396 -108 498 -68 74 -131 99 -254 99 -139 1
-247 -47 -372 -166 -29 -28 -53 -46 -53 -41 0 5 53 278 118 607 l118 597 -318
0 -318 0 -5 -22z m696 -1386 c15 -17 33 -48 38 -69 15 -54 13 -240 -4 -363
-24 -170 -144 -764 -176 -874 -80 -268 -187 -393 -322 -372 -113 18 -151 119
-127 336 12 109 153 846 189 985 68 267 178 402 320 392 46 -3 59 -9 82 -35z"/>
<path d="M5005 7974 c-108 -17 -238 -76 -323 -147 -217 -181 -390 -564 -500
-1113 -142 -703 -86 -1089 176 -1213 328 -154 710 52 942 507 23 46 40 85 38
88 -3 2 -82 35 -176 73 l-172 69 -11 -41 c-16 -63 -84 -203 -120 -248 -44 -56
-111 -92 -170 -93 -58 -1 -95 23 -124 80 -39 76 -20 377 39 613 l11 46 420 3
421 2 47 243 c26 133 52 276 57 317 12 98 12 279 0 355 -35 221 -155 388 -315
440 -51 16 -186 27 -240 19z m76 -390 c19 -10 39 -33 52 -62 39 -84 29 -235
-35 -534 l-10 -48 -204 0 -204 0 5 23 c85 385 114 475 182 564 49 64 149 91
214 57z"/>
<path d="M1660 7917 c0 -2 -16 -82 -35 -177 -19 -95 -35 -179 -35 -187 0 -10
22 -13 90 -13 l90 0 0 -458 c0 -252 3 -716 7 -1031 l6 -571 190 2 190 3 304
810 c166 446 308 819 313 830 11 21 6 -1013 -7 -1432 l-6 -213 200 0 199 0
411 1028 411 1027 93 5 93 5 31 155 c17 85 34 170 38 188 l7 32 -377 -2 -377
-3 -31 -155 c-17 -85 -34 -170 -38 -187 l-6 -33 89 0 c50 0 90 -3 90 -6 0 -7
-396 -1135 -432 -1229 -18 -49 -18 -40 -13 783 l5 832 -201 -2 -202 -3 -301
-826 c-167 -459 -303 -817 -305 -805 -4 26 17 1038 25 1164 l6 92 79 0 c43 0
79 1 79 3 0 2 16 82 35 177 19 95 35 179 35 187 0 11 -70 13 -375 13 -206 0
-375 -1 -375 -3z"/>
<path d="M1320 2490 l0 -2490 3165 0 3165 0 0 2490 0 2490 -3165 0 -3165 0 0
-2490z m1418 1568 l2 -208 -135 0 -135 0 0 -1315 0 -1315 135 0 135 0 0 -205
0 -205 -510 0 -510 0 0 205 0 205 130 0 130 0 0 1315 0 1315 -130 0 -130 0 0
210 0 210 508 -2 507 -3 3 -207z m1484 189 c261 -51 464 -177 598 -371 86
-125 167 -333 214 -546 74 -339 94 -847 50 -1267 -46 -450 -161 -761 -357
-969 -123 -130 -237 -198 -421 -252 -91 -26 -92 -26 -523 -29 l-433 -4 0 205
0 205 128 3 127 3 3 1313 2 1312 -130 0 -130 0 0 203 c0 112 3 207 8 211 4 5
183 6 397 3 288 -4 410 -9 467 -20z m3068 -482 l0 -505 -210 0 -210 0 0 295 0
295 -215 0 -215 0 0 -525 0 -525 175 0 175 0 0 -210 0 -210 -175 0 -175 0 0
-580 0 -580 215 0 215 0 0 325 0 325 210 0 210 0 0 -530 0 -530 -795 0 -795 0
0 205 0 205 125 0 125 0 0 1315 0 1315 -125 0 -125 0 0 210 0 210 795 0 795 0
0 -505z"/>
<path d="M4100 2536 c0 -724 1 -1316 3 -1316 32 0 133 28 170 46 226 115 309
499 294 1369 -8 469 -34 722 -93 903 -61 186 -166 287 -321 307 l-53 7 0
-1316z"/>
</g>
</svg>
